<svg width="24" height="24" viewBox="0 0 24 24" fill="none" xmlns="http://www.w3.org/2000/svg">
<g id="Icon / eye">
<path id="eye" d="M12.3122 18.0555C17.8725 18.0555 21.6109 13.0684 21.6109 11.524C21.6109 9.97963 17.8589 5 12.3122 5C6.83325 5 3 9.97963 3 11.524C3 13.0684 6.8197 18.0555 12.3122 18.0555ZM12.3122 16.579C7.99135 16.579 4.57123 12.5787 4.57123 11.524C4.57123 10.6426 7.99135 6.47656 12.3122 6.47656C16.6128 6.47656 20.0397 10.6426 20.0397 11.524C20.0397 12.5787 16.6128 16.579 12.3122 16.579ZM12.3122 15.5695C14.3304 15.5695 15.9491 13.7238 15.9491 11.524C15.9491 9.27148 14.3304 7.48605 12.3122 7.48605C10.2805 7.48605 8.65506 9.27148 8.66183 11.524C8.67538 13.7238 10.2805 15.5695 12.3122 15.5695ZM12.3054 12.8273C11.6553 12.8273 11.127 12.2397 11.127 11.524C11.127 10.8083 11.6553 10.2207 12.3054 10.2207C12.9556 10.2207 13.4839 10.8083 13.4839 11.524C13.4839 12.2397 12.9556 12.8273 12.3054 12.8273Z" fill="#718096"/>
</g>
</svg>
