<svg width="38" height="38" viewBox="0 0 38 38" fill="none" xmlns="http://www.w3.org/2000/svg">
<path d="M1.97644 24.9309C1.71193 25.0127 1.45892 24.9894 1.21741 24.8608C0.975898 24.7322 0.809141 24.516 0.717137 24.2121C0.383623 22.9965 0.170864 21.8102 0.0788604 20.653C-0.0131434 19.4842 -0.0246439 18.4089 0.044359 17.4271C0.0788604 17.1466 0.182365 16.9187 0.354872 16.7433C0.53888 16.568 0.79764 16.492 1.13115 16.5154C1.38416 16.5271 1.59117 16.6206 1.75218 16.7959C1.91319 16.9713 1.98794 17.2226 1.97644 17.5498C1.93044 18.7771 1.96494 19.8816 2.07994 20.8634C2.19495 21.8336 2.36171 22.7628 2.58021 23.6511C2.64922 23.9433 2.62622 24.2121 2.51121 24.4576C2.40771 24.6913 2.22945 24.8491 1.97644 24.9309ZM1.21741 14.4817C0.975898 14.3882 0.79189 14.2012 0.665385 13.9206C0.53888 13.6284 0.55613 13.2603 0.717137 12.8161C1.51067 10.6655 2.52846 8.78952 3.77051 7.18824C5.01257 5.58696 6.42138 4.2545 7.99694 3.19088C9.58401 2.11556 11.2861 1.31492 13.1032 0.788953C14.9317 0.262984 16.8178 0 18.7614 0C20.406 0 21.9183 0.169479 23.2983 0.508437C24.6784 0.847394 26.0239 1.43765 27.335 2.2792C27.5535 2.41946 27.7203 2.59478 27.8353 2.80517C27.9503 3.00387 27.9388 3.25516 27.8008 3.55906C27.6743 3.85126 27.4673 4.00905 27.1797 4.03243C26.8922 4.04412 26.599 3.9623 26.3 3.78698C25.2764 3.19088 24.1436 2.74088 22.9016 2.43699C21.671 2.12141 20.291 1.96362 18.7614 1.96362C16.5188 1.96362 14.3337 2.40192 12.2061 3.27854C10.09 4.15515 8.19245 5.47008 6.51338 7.22331C4.83431 8.96485 3.529 11.1505 2.59747 13.7804C2.48246 14.1193 2.28695 14.3473 2.01094 14.4641C1.73493 14.5693 1.47042 14.5752 1.21741 14.4817ZM37.0989 20.8459C36.8229 20.8459 36.5986 20.7465 36.4261 20.5479C36.2651 20.3492 36.1674 20.1037 36.1329 19.8115C35.8454 16.6323 35.1208 13.9499 33.9593 11.7642C32.8092 9.56679 31.3832 7.66161 29.6811 6.04864C29.4281 5.81488 29.2958 5.56943 29.2843 5.31229C29.2843 5.04346 29.3648 4.81554 29.5258 4.62853C29.6753 4.4532 29.8824 4.34801 30.1469 4.31294C30.4114 4.27788 30.6701 4.37139 30.9231 4.59346C32.2457 5.77397 33.3843 7.08305 34.3388 8.5207C35.3048 9.95834 36.0869 11.6005 36.6849 13.4473C37.2944 15.2823 37.7314 17.392 37.9959 19.7764C38.0189 20.0803 37.9442 20.3375 37.7717 20.5479C37.5992 20.7465 37.3749 20.8459 37.0989 20.8459ZM3.97752 30.0153C3.83952 29.8049 3.78777 29.5653 3.82227 29.2965C3.85677 29.0276 3.97752 28.8056 4.18453 28.6302C4.58705 28.2679 4.89181 27.8179 5.09882 27.2803C5.31733 26.7426 5.42658 26.1757 5.42658 25.5796C5.41508 24.9718 5.31733 24.3407 5.13332 23.6861C4.96081 23.0199 4.78256 22.3011 4.59855 21.5297C4.42604 20.7582 4.33979 19.8933 4.33979 18.9349C4.33979 16.9479 4.71355 15.0778 5.46108 13.3245C6.20862 11.5713 7.23791 10.0285 8.54896 8.69602C9.87152 7.35188 11.3953 6.29994 13.1204 5.54021C14.857 4.76878 16.7028 4.38307 18.6579 4.38307C20.9925 4.38307 23.1028 4.83307 24.9889 5.73306C26.875 6.63305 28.4908 7.91291 29.8364 9.57263C31.1819 11.2324 32.2169 13.2077 32.9415 15.4985C33.666 17.7894 34.0283 20.3316 34.0283 23.1251C34.0283 25.229 33.873 27.0406 33.5625 28.5601C33.2635 30.0796 32.9472 31.3068 32.6137 32.2419C32.5102 32.5224 32.3147 32.7094 32.0272 32.8029C31.7512 32.8964 31.4924 32.8906 31.2509 32.7854C31.0324 32.6685 30.8771 32.4815 30.7851 32.2244C30.6931 31.9672 30.7046 31.6984 30.8196 31.4179C31.1417 30.6231 31.4349 29.5361 31.6994 28.1569C31.9639 26.766 32.0962 25.0946 32.0962 23.1426C32.0847 19.7998 31.5269 16.8719 30.4229 14.359C29.3188 11.8343 27.7605 9.87068 25.7479 8.4681C23.7468 7.05383 21.3835 6.34669 18.6579 6.34669C16.9673 6.34669 15.3745 6.6798 13.8794 7.34603C12.3844 8.00057 11.0676 8.91225 9.92902 10.0811C8.79047 11.2382 7.89344 12.5765 7.23791 14.096C6.59388 15.6037 6.27187 17.2167 6.27187 18.9349C6.27187 19.9401 6.35812 20.7875 6.53063 21.4771C6.70314 22.1667 6.87564 22.827 7.04815 23.4582C7.22066 24.0777 7.30691 24.7907 7.30691 25.5972C7.30691 26.4855 7.15166 27.3387 6.84114 28.1569C6.53063 28.975 6.06486 29.6471 5.44383 30.1731C5.20232 30.3835 4.93781 30.4711 4.6503 30.4361C4.36279 30.3893 4.13853 30.2491 3.97752 30.0153ZM8.04869 33.2763C7.73818 33.4399 7.45642 33.475 7.20341 33.3815C6.9504 33.288 6.77214 33.1302 6.66864 32.9081C6.57663 32.7094 6.55938 32.4815 6.61688 32.2244C6.68589 31.9789 6.87564 31.7451 7.18616 31.5231C7.81868 31.0789 8.34196 30.5646 8.75597 29.9802C9.18149 29.3958 9.50925 28.7179 9.73926 27.9465C9.83127 27.666 9.99227 27.4614 10.2223 27.3328C10.4523 27.2043 10.6881 27.1809 10.9296 27.2627C11.2056 27.3562 11.3953 27.5315 11.4988 27.7887C11.6023 28.0341 11.6196 28.2796 11.5506 28.525C11.3896 29.1328 11.1136 29.764 10.7226 30.4185C10.3315 31.0614 9.89452 31.6399 9.4115 32.1542C8.92848 32.6802 8.47421 33.0542 8.04869 33.2763ZM11.7403 23.7738C11.8324 24.0543 11.8324 24.3231 11.7403 24.5803C11.6483 24.8374 11.4758 25.0186 11.2228 25.1238C10.9123 25.2523 10.6363 25.2582 10.3948 25.1413C10.1533 25.0244 9.96927 24.8199 9.84277 24.5277C9.54376 23.7796 9.26774 22.9556 9.01473 22.0556C8.77322 21.1556 8.65247 20.1505 8.65247 19.0401C8.65247 17.6024 8.91123 16.2641 9.42875 15.0252C9.94627 13.7745 10.6651 12.6817 11.5851 11.7466C12.5051 10.8116 13.5747 10.0811 14.7937 9.5551C16.0243 9.02913 17.3468 8.76615 18.7614 8.76615C19.6124 8.76615 20.4462 8.88303 21.2627 9.11679C22.0793 9.33887 22.7751 9.61939 23.3501 9.95834C23.6376 10.1337 23.8216 10.3557 23.9021 10.6246C23.9826 10.8934 23.9539 11.1505 23.8158 11.396C23.7238 11.5947 23.5628 11.7291 23.3328 11.7992C23.1143 11.8577 22.8728 11.8226 22.6083 11.694C22.0908 11.4486 21.6538 11.2557 21.2972 11.1155C20.9522 10.9752 20.59 10.8817 20.2104 10.835C19.8309 10.7765 19.3479 10.7473 18.7614 10.7473C17.2318 10.7473 15.8518 11.1155 14.6212 11.8518C13.3907 12.5882 12.4131 13.5817 11.6886 14.8323C10.9641 16.083 10.6018 17.4855 10.6018 19.0401C10.6018 20.0569 10.7341 20.9511 10.9986 21.7225C11.2746 22.4939 11.5218 23.1777 11.7403 23.7738ZM25.3167 14.0434C25.1212 13.7395 25.0522 13.4473 25.1097 13.1668C25.1672 12.8745 25.3224 12.6583 25.5754 12.5181C25.8169 12.3895 26.0699 12.3661 26.3345 12.4479C26.6105 12.5297 26.8405 12.7109 27.0245 12.9914C27.542 13.8447 28.002 14.7856 28.4045 15.8141C28.8186 16.831 29.1406 18.0115 29.3706 19.3557C29.6006 20.6881 29.7156 22.2368 29.7156 24.0017C29.7156 26.4329 29.3936 28.7354 28.7496 30.9094C28.117 33.0834 27.2775 34.8951 26.231 36.3444C26.0584 36.5782 25.8227 36.7009 25.5237 36.7126C25.2247 36.736 24.9716 36.6483 24.7646 36.4496C24.5691 36.2626 24.4771 36.0347 24.4886 35.7659C24.5001 35.4971 24.5806 35.2574 24.7301 35.0471C25.6732 33.8549 26.4207 32.2828 26.9727 30.3309C27.5363 28.3673 27.818 26.2809 27.818 24.0718C27.818 22.003 27.6053 20.1271 27.1797 18.444C26.7657 16.7492 26.1447 15.2823 25.3167 14.0434ZM11.6713 35.5906C11.4413 35.7893 11.1826 35.8769 10.8951 35.8535C10.6191 35.8302 10.3948 35.6899 10.2223 35.4328C10.0728 35.2107 10.0153 34.9711 10.0498 34.7139C10.0958 34.4685 10.2338 34.2464 10.4638 34.0477C11.6483 33.0659 12.5511 31.8328 13.1722 30.3484C13.7932 28.864 14.0979 27.251 14.0864 25.5095C14.0749 24.703 13.9829 23.9024 13.8104 23.1076C13.6379 22.3011 13.4654 21.5238 13.2929 20.7758C13.1204 20.0277 13.0342 19.3206 13.0342 18.6544C13.0342 17.5557 13.2814 16.5972 13.7759 15.7791C14.282 14.9609 14.9605 14.3239 15.8115 13.868C16.6741 13.4122 17.6401 13.1843 18.7096 13.1843C20.3197 13.1843 21.5963 13.6577 22.5393 14.6044C23.4823 15.5395 24.1609 16.8076 24.5749 18.4089C24.9889 19.9985 25.1959 21.7751 25.1959 23.7387C25.2074 25.7491 24.9889 27.666 24.5404 29.4893C24.0919 31.301 23.4881 32.9198 22.7291 34.3458C21.9815 35.7717 21.1592 36.8996 20.2622 37.7295C20.0322 37.9399 19.7734 38.0275 19.4859 37.9925C19.1984 37.9574 18.9741 37.823 18.8131 37.5892C18.6751 37.3672 18.6234 37.1334 18.6579 36.888C18.7039 36.6425 18.8304 36.4321 19.0374 36.2568C19.8884 35.4971 20.6532 34.4977 21.3317 33.2588C22.0103 32.0198 22.5335 30.6055 22.9016 29.0159C23.2811 27.4147 23.4421 25.7023 23.3846 23.879C23.3501 22.3011 23.1833 20.8517 22.8843 19.531C22.5853 18.1985 22.1023 17.1349 21.4353 16.3401C20.7682 15.5453 19.8597 15.1479 18.7096 15.1479C17.5826 15.1479 16.6683 15.4869 15.9668 16.1648C15.2767 16.831 14.9317 17.7193 14.9317 18.8297C14.9317 19.3907 15.018 19.9927 15.1905 20.6355C15.3745 21.2667 15.5585 21.9797 15.7425 22.7745C15.9265 23.5693 16.0243 24.4809 16.0358 25.5095C16.0473 27.5432 15.6735 29.4426 14.9145 31.2075C14.1669 32.9724 13.0859 34.4334 11.6713 35.5906ZM15.708 36.9931C15.4665 37.1802 15.202 37.2561 14.9145 37.2211C14.627 37.186 14.4142 37.0457 14.2762 36.8003C14.1267 36.5782 14.0749 36.3328 14.1209 36.0639C14.1784 35.8068 14.3165 35.5906 14.535 35.4152C15.11 34.9594 15.662 34.3633 16.191 33.6269C16.7316 32.8906 17.2203 31.938 17.6573 30.7692C17.7378 30.5354 17.8931 30.3601 18.1231 30.2432C18.3531 30.1263 18.6119 30.1205 18.8994 30.2257C19.1754 30.3192 19.3422 30.5004 19.3997 30.7692C19.4687 31.0263 19.4744 31.2542 19.4169 31.4529C19.0949 32.575 18.5659 33.6503 17.8299 34.6789C17.0938 35.7191 16.3865 36.4906 15.708 36.9931ZM20.4002 27.3679C20.3427 27.6835 20.1989 27.9231 19.9689 28.0867C19.7389 28.2387 19.4859 28.2854 19.2099 28.227C18.9109 28.1802 18.7039 28.0458 18.5889 27.8238C18.4739 27.6017 18.4451 27.3621 18.5026 27.1049C18.6406 26.3686 18.7096 25.603 18.7096 24.8082C18.7211 24.0134 18.6636 23.2011 18.5371 22.3712C18.4221 21.5297 18.2324 20.6881 17.9679 19.8466C17.8759 19.5427 17.8931 19.2797 18.0196 19.0576C18.1461 18.8238 18.3359 18.6661 18.5889 18.5842C18.8534 18.5024 19.1007 18.5258 19.3307 18.6544C19.5607 18.7829 19.7332 19.0109 19.8482 19.3381C20.1242 20.2147 20.3312 21.1206 20.4692 22.0556C20.6072 22.9907 20.6705 23.9141 20.659 24.8257C20.6475 25.7257 20.5612 26.5731 20.4002 27.3679Z" fill="white"/>
</svg>
